<svg xmlns="http://www.w3.org/2000/svg" version="1.1" xmlns:xlink="http://www.w3.org/1999/xlink" xmlns:svgjs="http://svgjs.dev/svgjs" width="2000" height="757" viewBox="0 0 2000 757"><g transform="matrix(1,0,0,1,-1.2121212121212466,1.2026770690556532)"><svg viewBox="0 0 396 150" data-background-color="#ffffff" preserveAspectRatio="xMidYMid meet" height="757" width="2000" xmlns="http://www.w3.org/2000/svg" xmlns:xlink="http://www.w3.org/1999/xlink"><g id="tight-bounds" transform="matrix(1,0,0,1,0.2400000000000091,-0.23831117616690278)"><svg viewBox="0 0 395.52 150.4766223523338" height="150.4766223523338" width="395.52"><g><svg viewBox="0 0 657.4047574287672 250.11136583797588" height="150.4766223523338" width="395.52"><g transform="matrix(1,0,0,1,259.9071574287673,73.47920101829743)"><svg viewBox="0 0 397.4975999999999 103.152963801381" height="103.152963801381" width="397.4975999999999"><g id="textblocktransform"><svg viewBox="0 0 397.4975999999999 103.152963801381" height="103.152963801381" width="397.4975999999999" id="textblock"><g><rect width="397.4975999999999" height="5.444890720189126" x="0" y="66.79147705845551" fill="#096a2e" opacity="1" stroke-width="0" stroke="transparent" fill-opacity="1" class="rect-s$-0" data-fill-palette-color="primary" rx="1%" id="s$-0" data-palette-color="#096a2e"></rect></g><g transform="matrix(1,0,0,1,0.9887999999999693,0)"><svg viewBox="0 0 395.52 60.377338775510204" height="60.377338775510204" width="395.52"><g transform="matrix(1,0,0,1,0,0)"><svg width="395.52" viewBox="4.13 -36.04 239.24 36.53" height="60.377338775510204" data-palette-color="#096a2e"><path d="M24.22-20.26L24.22-16.43 8.81-16.43 8.81-3.83 26.71-3.83 26.71 0 4.13 0 4.13-35.55 26.46-35.55 26.46-31.69 8.81-31.69 8.81-20.26 24.22-20.26ZM47.43-10.3L47.43-35.55 52.15-35.55 52.15-10.38Q52.15-5.27 49.08-2.39 46.02 0.49 40.92 0.49L40.92 0.49Q35.62 0.49 32.66-2.22 29.71-4.93 29.71-9.81L29.71-9.81 34.4-9.81Q34.4-6.76 36.07-5.05 37.74-3.34 40.92-3.34L40.92-3.34Q43.82-3.34 45.62-5.18 47.41-7.01 47.43-10.3L47.43-10.3ZM65.16-35.55L65.16 0 60.47 0 60.47-35.55 65.16-35.55ZM83.56 0L73.72 0 73.72-35.55 83.76-35.55Q88.4-35.55 91.96-33.5 95.52-31.45 97.47-27.66 99.41-23.88 99.43-18.97L99.43-18.97 99.43-16.7Q99.43-11.67 97.49-7.89 95.55-4.1 91.95-2.08 88.35-0.05 83.56 0L83.56 0ZM83.88-31.69L78.41-31.69 78.41-3.83 83.34-3.83Q88.76-3.83 91.78-7.2 94.79-10.57 94.79-16.8L94.79-16.8 94.79-18.87Q94.79-24.93 91.95-28.28 89.1-31.64 83.88-31.69L83.88-31.69ZM133.85-18.87L133.85-16.63Q133.85-11.4 132.09-7.51 130.34-3.61 127.11-1.56 123.89 0.49 119.59 0.49L119.59 0.49Q115.4 0.49 112.15-1.57 108.9-3.64 107.11-7.46 105.31-11.28 105.26-16.31L105.26-16.31 105.26-18.87Q105.26-24 107.05-27.93 108.83-31.86 112.09-33.95 115.35-36.04 119.55-36.04L119.55-36.04Q123.82-36.04 127.08-33.97 130.34-31.91 132.09-27.99 133.85-24.07 133.85-18.87L133.85-18.87ZM129.19-16.28L129.19-18.92Q129.19-25.24 126.65-28.63 124.11-32.01 119.55-32.01L119.55-32.01Q115.1-32.01 112.55-28.63 110-25.24 109.93-19.24L109.93-19.24 109.93-16.63Q109.93-10.5 112.5-6.99 115.08-3.49 119.59-3.49L119.59-3.49Q124.14-3.49 126.63-6.8 129.12-10.11 129.19-16.28L129.19-16.28ZM140.88-35.55L146.94-35.55 158.56-6.54 170.18-35.55 176.26-35.55 176.26 0 171.57 0 171.57-13.84 172.01-28.78 160.34 0 156.75 0 145.1-28.71 145.57-13.84 145.57 0 140.88 0 140.88-35.55ZM207.99 0L204.6-9.28 189.71-9.28 186.36 0 181.53 0 195.1-35.55 199.2-35.55 212.8 0 207.99 0ZM197.15-29.76L191.12-13.13 203.21-13.13 197.15-29.76ZM238.34 0L230.62-14.38 222.27-14.38 222.27 0 217.56 0 217.56-35.55 229.33-35.55Q235.33-35.55 238.57-32.81 241.8-30.08 241.8-24.85L241.8-24.85Q241.8-21.53 240.01-19.07 238.21-16.6 235.02-15.38L235.02-15.38 243.37-0.29 243.37 0 238.34 0ZM222.27-31.69L222.27-18.21 229.47-18.21Q232.97-18.21 235.03-20.02 237.09-21.83 237.09-24.85L237.09-24.85Q237.09-28.15 235.13-29.91 233.16-31.67 229.45-31.69L229.45-31.69 222.27-31.69Z" opacity="1" transform="matrix(1,0,0,1,0,0)" fill="#096a2e" class="undefined-text-0" data-fill-palette-color="primary" id="text-0"></path></svg></g></svg></g><g transform="matrix(1,0,0,1,0,78.65050606158994)"><svg viewBox="0 0 232.209792 24.502457739791073" height="24.502457739791073" width="232.209792"><g transform="matrix(1,0,0,1,0,0)"><svg width="232.209792" viewBox="0.45 -37.5 473.8 50" height="24.502457739791073" data-palette-color="#3c3c3c"><path d="M23.85-20.35L26.75-33.95Q24.7-32.85 22.4-29.83 20.1-26.8 17.75-22.1L17.75-22.1Q19.55-21.75 21.08-21.3 22.6-20.85 23.85-20.35L23.85-20.35ZM30.65-37.5L30.65-37.5Q31.7-37.5 32.75-37.33 33.8-37.15 34.6-36.8L34.6-36.8 26.75 0 19.55 0 23.4-18.15Q21.65-18.95 20.1-19.38 18.55-19.8 16.7-19.95L16.7-19.95Q13.85-13.75 12.03-7.35 10.2-0.95 10.2 2.9L10.2 2.9Q10.2 3.8 10.38 4.48 10.55 5.15 10.9 5.7L10.9 5.7Q7.1 5.7 5.65 4.4 4.2 3.1 4.2 0.4L4.2 0.4Q4.2-2.95 6.23-8.55 8.25-14.15 11.55-19.95L11.55-19.95Q9-19.8 7.58-19.15 6.15-18.5 5.7-17.35L5.7-17.35Q5.9-17.35 6.13-16.82 6.35-16.3 6.35-15.8L6.35-15.8Q6.35-14.95 5.55-14.4 4.75-13.85 3.55-13.85L3.55-13.85Q2.15-13.85 1.3-14.63 0.45-15.4 0.45-16.75L0.45-16.75Q0.45-19.35 3.38-21.13 6.3-22.9 10.65-22.9L10.65-22.9Q11.15-22.9 11.8-22.88 12.45-22.85 13.25-22.75L13.25-22.75Q17.65-29.7 22.2-33.6 26.75-37.5 30.65-37.5ZM49.65-22.7L49.65-22.7 49.65-22.4 50.2-25 57.4-25 52.45-1.8Q54.95-2.7 56.37-4.33 57.8-5.95 58.75-8.95L58.75-8.95 60.85-8.95Q59.7-5.15 57.57-2.85 55.45-0.55 52 0.4L52 0.4 51.25 4Q50.35 8.2 48.1 10.35 45.85 12.5 42.25 12.5L42.25 12.5Q39.7 12.5 38.17 11.2 36.65 9.9 36.65 7.65L36.65 7.65Q36.65 5.2 38.67 3.33 40.7 1.45 44.8 0.2L44.8 0.2 45.4-2.45Q44.1-1.1 42.6-0.4 41.1 0.3 39.4 0.3L39.4 0.3Q36.3 0.3 34.52-1.8 32.75-3.9 32.75-7.75L32.75-7.75Q32.75-10.55 33.6-13.6 34.45-16.65 35.95-19.15L35.95-19.15Q37.8-22.1 40.25-23.68 42.7-25.25 45.6-25.25L45.6-25.25Q47.55-25.25 48.6-24.58 49.65-23.9 49.65-22.7ZM46.65-8.45L49.2-20.3Q49.15-21.1 48.6-21.63 48.05-22.15 47.15-22.15L47.15-22.15Q44.4-22.15 42.27-17.55 40.15-12.95 40.15-8.45L40.15-8.45Q40.15-6.5 40.7-5.53 41.25-4.55 42.65-4.55L42.65-4.55Q43.85-4.55 45.02-5.65 46.2-6.75 46.65-8.45L46.65-8.45ZM44 4.15L44.3 2.7Q41.8 3.65 40.6 4.67 39.4 5.7 39.4 6.95L39.4 6.95Q39.4 7.6 39.9 8.1 40.4 8.6 41.1 8.6L41.1 8.6Q41.95 8.6 42.75 7.4 43.55 6.2 44 4.15L44 4.15ZM67.7-19L63.7 0 56.5 0 61.8-25 69-25 68.34-21.9Q70.55-23.75 71.82-24.38 73.09-25 74.4-25L74.4-25Q75.95-25 76.9-23.93 77.84-22.85 77.84-21.25L77.84-21.25Q77.84-19.7 76.84-18.65 75.84-17.6 74.25-17.6L74.25-17.6Q73.4-17.6 72.92-18 72.45-18.4 72.25-19.65L72.25-19.65Q72.09-20.45 71.9-20.68 71.7-20.9 71.34-20.9L71.34-20.9Q70.5-20.9 69.75-20.55 69-20.2 67.7-19L67.7-19ZM90.04-31.65L90.04-31.65Q90.04-30 88.87-28.85 87.69-27.7 86.04-27.7L86.04-27.7Q84.39-27.7 83.24-28.85 82.09-30 82.09-31.65L82.09-31.65Q82.09-33.3 83.24-34.48 84.39-35.65 86.04-35.65L86.04-35.65Q87.69-35.65 88.87-34.48 90.04-33.3 90.04-31.65ZM77.29-5.7L77.29-5.7Q77.29-6.35 77.39-7.18 77.49-8 77.69-8.95L77.69-8.95 81.09-25 88.29-25 84.69-8Q84.59-7.55 84.54-7.18 84.49-6.8 84.49-6.4L84.49-6.4Q84.49-5.4 84.97-4.98 85.44-4.55 86.54-4.55L86.54-4.55Q87.94-4.55 89.19-5.78 90.44-7 91.04-8.95L91.04-8.95 93.14-8.95Q91.54-4.4 88.84-2.05 86.14 0.3 82.64 0.3L82.64 0.3Q80.14 0.3 78.72-1.28 77.29-2.85 77.29-5.7ZM108.09-20.85L108.09-20.85Q108.09-19.15 107.37-18.18 106.64-17.2 105.44-17.2L105.44-17.2Q105.04-17.2 104.59-17.35 104.14-17.5 103.69-17.8L103.69-17.8Q103.99-18.6 104.14-19.35 104.29-20.1 104.29-20.75L104.29-20.75Q104.29-21.75 103.94-22.28 103.59-22.8 102.89-22.8L102.89-22.8Q100.69-22.8 98.59-17.73 96.49-12.65 96.49-8.1L96.49-8.1Q96.49-5.8 97.27-4.85 98.04-3.9 100.09-3.9L100.09-3.9Q102.44-3.9 104.42-4.98 106.39-6.05 108.94-8.95L108.94-8.95 110.64-8.95Q107.74-4.25 104.34-1.98 100.94 0.3 96.89 0.3L96.89 0.3Q93.04 0.3 91.07-1.7 89.09-3.7 89.09-7.65L89.09-7.65Q89.09-10.5 89.97-13.7 90.84-16.9 92.39-19.4L92.39-19.4Q94.24-22.4 96.82-23.93 99.39-25.45 102.54-25.45L102.54-25.45Q105.29-25.45 106.69-24.28 108.09-23.1 108.09-20.85ZM117.34-4.55L117.34-4.55Q118.64-4.55 119.66-5.68 120.69-6.8 121.34-8.95L121.34-8.95 124.74-25 131.94-25 128.34-8Q128.24-7.55 128.19-7.18 128.14-6.8 128.14-6.4L128.14-6.4Q128.14-5.4 128.61-4.98 129.09-4.55 130.19-4.55L130.19-4.55Q131.49-4.55 132.54-5.7 133.59-6.85 134.24-8.95L134.24-8.95 136.34-8.95Q134.74-4.35 132.19-2.02 129.64 0.3 126.29 0.3L126.29 0.3Q124.14 0.3 122.84-0.93 121.54-2.15 121.34-4.45L121.34-4.45Q119.89-2.05 118.06-0.88 116.24 0.3 113.94 0.3L113.94 0.3Q111.44 0.3 110.01-1.28 108.59-2.85 108.59-5.7L108.59-5.7Q108.59-6.35 108.69-7.18 108.79-8 108.99-8.95L108.99-8.95 112.39-25 119.59-25 115.99-8Q115.89-7.6 115.86-7.28 115.84-6.95 115.84-6.6L115.84-6.6Q115.84-5.6 116.21-5.08 116.59-4.55 117.34-4.55ZM133.84-5.7L133.84-5.7Q133.84-6.35 133.94-7.18 134.04-8 134.24-8.95L134.24-8.95 139.59-34 146.99-35 141.24-8Q141.14-7.55 141.09-7.18 141.04-6.8 141.04-6.4L141.04-6.4Q141.04-5.4 141.51-4.98 141.99-4.55 143.09-4.55L143.09-4.55Q144.49-4.55 145.74-5.78 146.99-7 147.59-8.95L147.59-8.95 149.69-8.95Q148.09-4.4 145.39-2.05 142.69 0.3 139.19 0.3L139.19 0.3Q136.69 0.3 135.26-1.28 133.84-2.85 133.84-5.7ZM148.93-23L149.33-25 150.98-25 152.48-31.9 159.88-32.9 158.18-25 161.18-25 160.78-23 157.78-23 154.58-8Q154.48-7.55 154.43-7.18 154.38-6.8 154.38-6.4L154.38-6.4Q154.38-5.4 154.86-4.98 155.33-4.55 156.43-4.55L156.43-4.55Q157.83-4.55 159.08-5.78 160.33-7 160.93-8.95L160.93-8.95 163.03-8.95Q161.43-4.4 158.73-2.05 156.03 0.3 152.53 0.3L152.53 0.3Q150.03 0.3 148.61-1.28 147.18-2.85 147.18-5.7L147.18-5.7Q147.18-6.35 147.28-7.18 147.38-8 147.58-8.95L147.58-8.95 150.58-23 148.93-23ZM169.28-4.55L169.28-4.55Q170.58-4.55 171.61-5.68 172.63-6.8 173.28-8.95L173.28-8.95 176.68-25 183.88-25 180.28-8Q180.18-7.55 180.13-7.18 180.08-6.8 180.08-6.4L180.08-6.4Q180.08-5.4 180.56-4.98 181.03-4.55 182.13-4.55L182.13-4.55Q183.43-4.55 184.48-5.7 185.53-6.85 186.18-8.95L186.18-8.95 188.28-8.95Q186.68-4.35 184.13-2.02 181.58 0.3 178.23 0.3L178.23 0.3Q176.08 0.3 174.78-0.93 173.48-2.15 173.28-4.45L173.28-4.45Q171.83-2.05 170-0.88 168.18 0.3 165.88 0.3L165.88 0.3Q163.38 0.3 161.96-1.28 160.53-2.85 160.53-5.7L160.53-5.7Q160.53-6.35 160.63-7.18 160.73-8 160.93-8.95L160.93-8.95 164.33-25 171.53-25 167.93-8Q167.83-7.6 167.81-7.28 167.78-6.95 167.78-6.6L167.78-6.6Q167.78-5.6 168.16-5.08 168.53-4.55 169.28-4.55ZM195.48-19L191.48 0 184.28 0 189.58-25 196.78-25 196.13-21.9Q198.33-23.75 199.6-24.38 200.88-25 202.18-25L202.18-25Q203.73-25 204.68-23.93 205.63-22.85 205.63-21.25L205.63-21.25Q205.63-19.7 204.63-18.65 203.63-17.6 202.03-17.6L202.03-17.6Q201.18-17.6 200.7-18 200.23-18.4 200.03-19.65L200.03-19.65Q199.88-20.45 199.68-20.68 199.48-20.9 199.13-20.9L199.13-20.9Q198.28-20.9 197.53-20.55 196.78-20.2 195.48-19L195.48-19ZM220.38-22.7L220.38-22.7 220.38-22.35 220.93-25 228.13-25 224.53-8Q224.43-7.55 224.38-7.18 224.33-6.8 224.33-6.4L224.33-6.4Q224.33-5.3 224.83-4.78 225.33-4.25 226.38-4.25L226.38-4.25Q227.68-4.25 228.73-5.48 229.78-6.7 230.43-8.95L230.43-8.95 232.53-8.95Q230.93-4.35 228.38-2.02 225.83 0.3 222.48 0.3L222.48 0.3Q220.33 0.3 219.05-0.9 217.78-2.1 217.58-4.3L217.58-4.3Q216.03-2 214.15-0.85 212.28 0.3 210.13 0.3L210.13 0.3Q207.03 0.3 205.25-1.8 203.48-3.9 203.48-7.75L203.48-7.75Q203.48-10.55 204.33-13.6 205.18-16.65 206.68-19.15L206.68-19.15Q208.53-22.1 210.98-23.68 213.43-25.25 216.33-25.25L216.33-25.25Q218.28-25.25 219.33-24.58 220.38-23.9 220.38-22.7ZM217.53-8.95L219.93-20.25Q219.93-21 219.38-21.58 218.83-22.15 217.88-22.15L217.88-22.15Q215.13-22.15 213-17.55 210.88-12.95 210.88-8.45L210.88-8.45Q210.88-6.5 211.43-5.53 211.98-4.55 213.38-4.55L213.38-4.55Q214.68-4.55 215.9-5.8 217.13-7.05 217.53-8.95L217.53-8.95ZM253.62-31.65L253.62-31.65Q253.62-30 252.45-28.85 251.27-27.7 249.62-27.7L249.62-27.7Q247.97-27.7 246.82-28.85 245.67-30 245.67-31.65L245.67-31.65Q245.67-33.3 246.82-34.48 247.97-35.65 249.62-35.65L249.62-35.65Q251.27-35.65 252.45-34.48 253.62-33.3 253.62-31.65ZM240.87-5.7L240.87-5.7Q240.87-6.35 240.97-7.18 241.07-8 241.27-8.95L241.27-8.95 244.67-25 251.87-25 248.27-8Q248.17-7.55 248.12-7.18 248.07-6.8 248.07-6.4L248.07-6.4Q248.07-5.4 248.55-4.98 249.02-4.55 250.12-4.55L250.12-4.55Q251.52-4.55 252.77-5.78 254.02-7 254.62-8.95L254.62-8.95 256.72-8.95Q255.12-4.4 252.42-2.05 249.72 0.3 246.22 0.3L246.22 0.3Q243.72 0.3 242.3-1.28 240.87-2.85 240.87-5.7ZM266.37-5.35L266.37-5.35Q266.37-6.25 266.59-7.6 266.82-8.95 267.52-11.9L267.52-11.9Q268.22-14.75 268.42-16 268.62-17.25 268.62-18.1L268.62-18.1Q268.62-19.35 268.17-20 267.72-20.65 266.82-20.65L266.82-20.65Q265.62-20.65 264.59-19.43 263.57-18.2 262.92-16.05L262.92-16.05 259.52 0 252.32 0 257.62-25 264.82-25 264.27-22.4Q265.52-23.8 266.97-24.5 268.42-25.2 270.12-25.2L270.12-25.2Q272.77-25.2 274.22-23.75 275.67-22.3 275.67-19.55L275.67-19.55Q275.67-18.4 275.39-16.82 275.12-15.25 274.32-12L274.32-12Q273.67-9.45 273.47-8.4 273.27-7.35 273.27-6.65L273.27-6.65Q273.27-5.6 273.77-5.08 274.27-4.55 275.27-4.55L275.27-4.55Q276.52-4.55 277.42-5.4 278.32-6.25 279.47-8.95L279.47-8.95 281.57-8.95Q279.97-4.3 277.69-2 275.42 0.3 272.27 0.3L272.27 0.3Q269.47 0.3 267.92-1.23 266.37-2.75 266.37-5.35ZM291.62-5.35L291.62-5.35Q291.62-6.25 291.84-7.6 292.07-8.95 292.77-11.9L292.77-11.9Q293.47-14.75 293.67-16 293.87-17.25 293.87-18.1L293.87-18.1Q293.87-19.35 293.42-20 292.97-20.65 292.07-20.65L292.07-20.65Q290.87-20.65 289.84-19.43 288.82-18.2 288.17-16.05L288.17-16.05 284.77 0 277.57 0 282.87-25 290.07-25 289.52-22.4Q290.77-23.8 292.22-24.5 293.67-25.2 295.37-25.2L295.37-25.2Q298.02-25.2 299.47-23.75 300.92-22.3 300.92-19.55L300.92-19.55Q300.92-18.4 300.64-16.82 300.37-15.25 299.57-12L299.57-12Q298.92-9.45 298.72-8.4 298.52-7.35 298.52-6.65L298.52-6.65Q298.52-5.6 299.02-5.08 299.52-4.55 300.52-4.55L300.52-4.55Q301.77-4.55 302.67-5.4 303.57-6.25 304.72-8.95L304.72-8.95 306.82-8.95Q305.22-4.3 302.94-2 300.67 0.3 297.52 0.3L297.52 0.3Q294.72 0.3 293.17-1.23 291.62-2.75 291.62-5.35ZM304.01-7.7L304.01-7.7Q304.01-10.55 304.94-13.75 305.86-16.95 307.46-19.45L307.46-19.45Q309.31-22.4 311.91-23.93 314.51-25.45 317.71-25.45L317.71-25.45Q320.91-25.45 322.51-23.45 324.11-21.45 324.11-17.45L324.11-17.45Q324.21-17.4 324.34-17.38 324.46-17.35 324.66-17.35L324.66-17.35Q326.21-17.35 328.36-18.2 330.51-19.05 332.36-20.35L332.36-20.35 332.81-19Q331.41-17.5 329.09-16.4 326.76-15.3 323.96-14.85L323.96-14.85Q323.36-8.1 320.06-3.95 316.76 0.2 312.01 0.2L312.01 0.2Q308.11 0.2 306.06-1.8 304.01-3.8 304.01-7.7ZM318.11-22.4L318.11-22.4Q315.71-22.4 313.59-17.55 311.46-12.7 311.46-8.35L311.46-8.35Q311.46-6 311.99-5.15 312.51-4.3 314.01-4.3L314.01-4.3Q315.86-4.3 317.54-7.3 319.21-10.3 319.81-14.7L319.81-14.7Q319.11-14.85 318.79-15.38 318.46-15.9 318.46-16.8L318.46-16.8Q318.46-17.75 318.86-18.45 319.26-19.15 320.01-19.5L320.01-19.5Q319.91-21.1 319.49-21.75 319.06-22.4 318.11-22.4ZM342.26-20.75L342.26-20.75Q341.46-20.75 340.96-21.53 340.46-22.3 340.46-23.3L340.46-23.3Q340.46-24.55 341.29-25.28 342.11-26 343.56-26L343.56-26Q345.11-26 345.91-24.85 346.71-23.7 346.71-21.65L346.71-21.65Q346.71-18.25 345.84-14.53 344.96-10.8 343.46-7.75L343.46-7.75Q341.46-3.8 338.66-1.75 335.86 0.3 332.46 0.3L332.46 0.3Q329.51 0.3 327.91-1.23 326.31-2.75 326.31-5.6L326.31-5.6Q326.31-6.15 326.39-6.78 326.46-7.4 326.56-8L326.56-8 330.16-25 337.36-25 333.76-8Q333.66-7.45 333.59-6.98 333.51-6.5 333.51-6.2L333.51-6.2Q333.51-5.4 333.94-4.98 334.36-4.55 335.21-4.55L335.21-4.55Q336.96-4.55 338.64-6.38 340.31-8.2 341.66-11.55L341.66-11.55Q342.66-13.95 343.26-16.6 343.86-19.25 343.86-21.25L343.86-21.25Q343.76-21.05 343.24-20.9 342.71-20.75 342.26-20.75ZM363.71-22.7L363.71-22.7 363.71-22.35 364.26-25 371.46-25 367.86-8Q367.76-7.55 367.71-7.18 367.66-6.8 367.66-6.4L367.66-6.4Q367.66-5.3 368.16-4.78 368.66-4.25 369.71-4.25L369.71-4.25Q371.01-4.25 372.06-5.48 373.11-6.7 373.76-8.95L373.76-8.95 375.86-8.95Q374.26-4.35 371.71-2.02 369.16 0.3 365.81 0.3L365.81 0.3Q363.66 0.3 362.38-0.9 361.11-2.1 360.91-4.3L360.91-4.3Q359.36-2 357.48-0.85 355.61 0.3 353.46 0.3L353.46 0.3Q350.36 0.3 348.58-1.8 346.81-3.9 346.81-7.75L346.81-7.75Q346.81-10.55 347.66-13.6 348.51-16.65 350.01-19.15L350.01-19.15Q351.86-22.1 354.31-23.68 356.76-25.25 359.66-25.25L359.66-25.25Q361.61-25.25 362.66-24.58 363.71-23.9 363.71-22.7ZM360.86-8.95L363.26-20.25Q363.26-21 362.71-21.58 362.16-22.15 361.21-22.15L361.21-22.15Q358.46-22.15 356.33-17.55 354.21-12.95 354.21-8.45L354.21-8.45Q354.21-6.5 354.76-5.53 355.31-4.55 356.71-4.55L356.71-4.55Q358.01-4.55 359.23-5.8 360.46-7.05 360.86-8.95L360.86-8.95ZM379.96-8.45L379.96-8.45Q379.96-6.5 380.51-5.53 381.06-4.55 382.46-4.55L382.46-4.55Q383.71-4.55 384.91-5.73 386.11-6.9 386.56-8.7L386.56-8.7 386.56-8.95 389.01-20.4Q388.86-21.2 388.33-21.68 387.81-22.15 386.96-22.15L386.96-22.15Q384.21-22.15 382.08-17.55 379.96-12.95 379.96-8.45ZM389.46-22.7L389.46-22.7 389.46-22.5 391.91-34 399.31-35 393.56-8Q393.46-7.55 393.41-7.18 393.36-6.8 393.36-6.4L393.36-6.4Q393.36-5.4 393.83-4.98 394.31-4.55 395.41-4.55L395.41-4.55Q396.71-4.55 397.76-5.7 398.81-6.85 399.46-8.95L399.46-8.95 401.56-8.95Q400.01-4.5 397.53-2.25 395.06 0 391.51 0L391.51 0Q389.46 0 388.18-1.13 386.91-2.25 386.61-4.3L386.61-4.3Q385.11-2 383.26-0.85 381.41 0.3 379.21 0.3L379.21 0.3Q376.11 0.3 374.33-1.8 372.56-3.9 372.56-7.75L372.56-7.75Q372.56-10.55 373.41-13.6 374.26-16.65 375.76-19.15L375.76-19.15Q377.61-22.1 380.06-23.68 382.51-25.25 385.41-25.25L385.41-25.25Q387.36-25.25 388.41-24.58 389.46-23.9 389.46-22.7ZM397.85-7.7L397.85-7.7Q397.85-10.55 398.78-13.75 399.7-16.95 401.3-19.45L401.3-19.45Q403.15-22.4 405.75-23.93 408.35-25.45 411.55-25.45L411.55-25.45Q414.75-25.45 416.35-23.45 417.95-21.45 417.95-17.45L417.95-17.45Q418.05-17.4 418.18-17.38 418.3-17.35 418.5-17.35L418.5-17.35Q420.05-17.35 422.2-18.2 424.35-19.05 426.2-20.35L426.2-20.35 426.65-19Q425.25-17.5 422.93-16.4 420.6-15.3 417.8-14.85L417.8-14.85Q417.2-8.1 413.9-3.95 410.6 0.2 405.85 0.2L405.85 0.2Q401.95 0.2 399.9-1.8 397.85-3.8 397.85-7.7ZM411.95-22.4L411.95-22.4Q409.55-22.4 407.43-17.55 405.3-12.7 405.3-8.35L405.3-8.35Q405.3-6 405.83-5.15 406.35-4.3 407.85-4.3L407.85-4.3Q409.7-4.3 411.38-7.3 413.05-10.3 413.65-14.7L413.65-14.7Q412.95-14.85 412.63-15.38 412.3-15.9 412.3-16.8L412.3-16.8Q412.3-17.75 412.7-18.45 413.1-19.15 413.85-19.5L413.85-19.5Q413.75-21.1 413.33-21.75 412.9-22.4 411.95-22.4ZM429.8-19L425.8 0 418.6 0 423.9-25 431.1-25 430.45-21.9Q432.65-23.75 433.93-24.38 435.2-25 436.5-25L436.5-25Q438.05-25 439-23.93 439.95-22.85 439.95-21.25L439.95-21.25Q439.95-19.7 438.95-18.65 437.95-17.6 436.35-17.6L436.35-17.6Q435.5-17.6 435.03-18 434.55-18.4 434.35-19.65L434.35-19.65Q434.2-20.45 434-20.68 433.8-20.9 433.45-20.9L433.45-20.9Q432.6-20.9 431.85-20.55 431.1-20.2 429.8-19L429.8-19ZM454.7-22.7L454.7-22.7 454.7-22.35 455.25-25 462.45-25 458.85-8Q458.75-7.55 458.7-7.18 458.65-6.8 458.65-6.4L458.65-6.4Q458.65-5.3 459.15-4.78 459.65-4.25 460.7-4.25L460.7-4.25Q462-4.25 463.05-5.48 464.1-6.7 464.75-8.95L464.75-8.95 466.85-8.95Q465.25-4.35 462.7-2.02 460.15 0.3 456.8 0.3L456.8 0.3Q454.65 0.3 453.37-0.9 452.1-2.1 451.9-4.3L451.9-4.3Q450.35-2 448.47-0.85 446.6 0.3 444.45 0.3L444.45 0.3Q441.35 0.3 439.57-1.8 437.8-3.9 437.8-7.75L437.8-7.75Q437.8-10.55 438.65-13.6 439.5-16.65 441-19.15L441-19.15Q442.85-22.1 445.3-23.68 447.75-25.25 450.65-25.25L450.65-25.25Q452.6-25.25 453.65-24.58 454.7-23.9 454.7-22.7ZM451.85-8.95L454.25-20.25Q454.25-21 453.7-21.58 453.15-22.15 452.2-22.15L452.2-22.15Q449.45-22.15 447.32-17.55 445.2-12.95 445.2-8.45L445.2-8.45Q445.2-6.5 445.75-5.53 446.3-4.55 447.7-4.55L447.7-4.55Q449-4.55 450.22-5.8 451.45-7.05 451.85-8.95L451.85-8.95ZM474.25-3.75L474.25-3.75Q474.25-2.1 473.07-0.95 471.9 0.2 470.25 0.2L470.25 0.2Q468.6 0.2 467.45-0.95 466.3-2.1 466.3-3.75L466.3-3.75Q466.3-5.4 467.45-6.58 468.6-7.75 470.25-7.75L470.25-7.75Q471.9-7.75 473.07-6.58 474.25-5.4 474.25-3.75Z" opacity="1" transform="matrix(1,0,0,1,0,0)" fill="#3c3c3c" class="undefined-text-1" data-fill-palette-color="secondary" id="text-1"></path></svg></g></svg></g></svg></g></svg></g><g><svg viewBox="0 0 245.65351679999995 250.11136583797588" height="250.11136583797588" width="245.65351679999995"><g><svg xmlns="http://www.w3.org/2000/svg" xmlns:xlink="http://www.w3.org/1999/xlink" version="1.1" x="0" y="0" viewBox="6.449414157832516 1.9924620716839518 498.9530876971126 508.007537928316" enable-background="new 0 0 512 512" xml:space="preserve" height="250.11136583797588" width="245.65351679999995" class="icon-icon-0" data-fill-palette-color="accent" id="icon-0"><g fill="#398378" data-fill-palette-color="accent"><g fill="#398378" data-fill-palette-color="accent"><g fill="#398378" data-fill-palette-color="accent"><g fill="#398378" data-fill-palette-color="accent"><g fill="#398378" data-fill-palette-color="accent"><g fill="#398378" data-fill-palette-color="accent"><path d="M232.2 180.4c-0.1 0-0.2 0-0.3 0l-9.2-0.3c-83.7-2.7-154-73-156.7-156.7l-0.3-9.2c-0.1-2.2 0.8-4.4 2.4-6 1.6-1.6 3.7-2.5 6-2.4l9.2 0.3c83.7 2.7 154 73 156.7 156.7l0.3 9.2c0.1 2.2-0.8 4.4-2.4 6C236.4 179.5 234.4 180.4 232.2 180.4zM82.1 22.2l0 0.6c2.4 75.4 65.7 138.7 141.1 141.1l0.6 0 0-0.6C221.4 88 158.1 24.7 82.7 22.2L82.1 22.2z" fill="#398378" data-fill-palette-color="accent"></path></g></g><g fill="#398378" data-fill-palette-color="accent"><g fill="#398378" data-fill-palette-color="accent"><path d="M258.3 272.1c-4.1 0-7.6-3.1-8-7.3-3.2-31.3-13.5-61.9-30.1-88.4-13.7-22.4-31.6-41.8-53.1-57.7-3.6-2.6-4.3-7.7-1.7-11.3 2.6-3.6 7.7-4.3 11.3-1.7 23.2 17.1 42.4 38 57.2 62.1 17.8 28.5 29 61.5 32.4 95.3 0.4 4.4-2.8 8.4-7.2 8.8C258.9 272.1 258.6 272.1 258.3 272.1z" fill="#398378" data-fill-palette-color="accent"></path></g></g></g><g fill="#398378" data-fill-palette-color="accent"><g fill="#398378" data-fill-palette-color="accent"><g fill="#398378" data-fill-palette-color="accent"><path d="M279.8 212.1c-2.1 0-4.2-0.8-5.7-2.4-1.6-1.6-2.4-3.7-2.4-6l0.3-9.2c2.7-83.7 73-154.1 156.7-156.7l9.2-0.3c2.1-0.1 4.4 0.8 6 2.4 1.6 1.6 2.4 3.7 2.4 6L446 55c-2.7 83.7-73 154-156.7 156.7l-9.2 0.3C279.9 212.1 279.9 212.1 279.8 212.1zM429.9 53.9l-0.6 0c-75.4 2.4-138.7 65.7-141.1 141.1l0 0.6 0.6 0c75.4-2.4 138.7-65.7 141.1-141.1L429.9 53.9z" fill="#398378" data-fill-palette-color="accent"></path></g></g><g fill="#398378" data-fill-palette-color="accent"><g fill="#398378" data-fill-palette-color="accent"><path d="M259.3 272.1c-0.6 0-1.3-0.1-2-0.2-4.3-1.1-7-5.5-5.9-9.8 5.4-21.8 14.3-42.9 26.5-62.5 15.1-24.3 34.4-45.2 57.3-62.1 3.6-2.6 8.6-1.9 11.3 1.7 2.6 3.6 1.9 8.6-1.7 11.3-21.3 15.7-39.1 35-53.1 57.6-11.2 18.2-19.5 37.7-24.5 57.9C266.2 269.7 262.9 272.1 259.3 272.1z" fill="#398378" data-fill-palette-color="accent"></path></g></g></g></g></g><g fill="#398378" data-fill-palette-color="accent"><g fill="#398378" data-fill-palette-color="accent"><path d="M99 506.2c-2.1 0-4.3-0.8-5.8-2.5-3.1-3.2-2.9-8.3 0.3-11.4l31.5-30c19.6-18.7 45.3-28.9 72.3-28.9h137.9c22.6 0 44.1-8.5 60.6-23.9l86.2-80.4c2.3-2.2 3.6-5.1 3.7-8.3 0-3.2-1.2-6.2-3.4-8.4-4.4-4.4-11.4-4.5-16-0.3l-95.4 87.2c-1.5 1.4-3.4 2.1-5.4 2.1h-109c-15.5 0-28.2-12.6-28.2-28.2 0-15.5 12.6-28.2 28.2-28.2h44.4c8.9 0 16.2-7.3 16.2-16.2s-7.3-16.2-16.2-16.2H173.3c-23.3 0-45.4 9-62.1 25.3l-87.3 85.4c-3.2 3.1-8.3 3.1-11.4-0.1-3.1-3.2-3.1-8.3 0.1-11.4l87.3-85.4c19.7-19.3 45.8-29.9 73.4-29.9h127.4c17.8 0 32.4 14.5 32.4 32.4s-14.5 32.4-32.4 32.4h-44.4c-6.6 0-12 5.4-12 12 0 6.6 5.4 12 12 12h105.9l93.1-85c11-10 27.7-9.6 38.3 0.8 5.4 5.4 8.3 12.5 8.2 20.1-0.1 7.6-3.2 14.7-8.8 19.9l-86.2 80.4c-19.5 18.2-44.9 28.2-71.6 28.2H197.3c-22.9 0-44.6 8.7-61.2 24.5l-31.5 30C103 505.5 101 506.2 99 506.2z" fill="#398378" data-fill-palette-color="accent"></path></g></g></g><g fill="#398378" data-fill-palette-color="accent"><g fill="#398378" data-fill-palette-color="accent"><g fill="#398378" data-fill-palette-color="accent"><g fill="#398378" data-fill-palette-color="accent"><g fill="#398378" data-fill-palette-color="accent"><g fill="#398378" data-fill-palette-color="accent"><path d="M231.9 179.2c-0.1 0-0.2 0-0.3 0l-9.4-0.3c-85-2.7-156.4-74.1-159.1-159.1l-0.3-9.3c-0.1-2.3 0.8-4.5 2.4-6.1C66.8 2.8 69 1.9 71.3 2l9.3 0.3c85 2.7 156.4 74.1 159.1 159.1l0.3 9.3c0.1 2.3-0.8 4.5-2.4 6.1C236.1 178.4 234 179.2 231.9 179.2zM79.5 18.7l0 0.6c2.5 76.5 66.7 140.8 143.3 143.3l0.6 0 0-0.6C220.9 85.4 156.6 21.2 80.1 18.7L79.5 18.7z" fill="#398378" data-fill-palette-color="accent"></path></g></g><g fill="#398378" data-fill-palette-color="accent"><g fill="#398378" data-fill-palette-color="accent"><path d="M258.4 272.4c-4.2 0-7.7-3.1-8.1-7.4-3.2-31.8-13.8-62.8-30.5-89.7-14-22.7-32.1-42.4-53.9-58.5-3.6-2.7-4.4-7.8-1.7-11.5 2.7-3.6 7.8-4.4 11.5-1.7 23.5 17.4 43 38.6 58.1 63.1 18 29 29.4 62.4 32.9 96.7 0.5 4.5-2.8 8.5-7.3 9C258.9 272.3 258.6 272.4 258.4 272.4z" fill="#398378" data-fill-palette-color="accent"></path></g></g></g><g fill="#398378" data-fill-palette-color="accent"><g fill="#398378" data-fill-palette-color="accent"><g fill="#398378" data-fill-palette-color="accent"><path d="M280.1 211.4c-2.2 0-4.3-0.9-5.8-2.4-1.6-1.6-2.5-3.8-2.4-6.1l0.3-9.3c2.7-85 74.1-156.4 159.1-159.1l9.3-0.3c2.2-0.1 4.4 0.8 6.1 2.4 1.6 1.6 2.5 3.8 2.4 6.1l-0.3 9.3c-2.7 85-74.1 156.4-159.1 159.1l-9.3 0.3C280.3 211.4 280.2 211.4 280.1 211.4zM432.5 50.8l-0.6 0c-76.5 2.5-140.8 66.7-143.3 143.3l0 0.6 0.6 0C365.7 192.3 430 128 432.5 51.5L432.5 50.8z" fill="#398378" data-fill-palette-color="accent"></path></g></g><g fill="#398378" data-fill-palette-color="accent"><g fill="#398378" data-fill-palette-color="accent"><path d="M259.4 272.4c-0.7 0-1.3-0.1-2-0.2-4.4-1.1-7.1-5.5-6-9.9 5.5-22.2 14.6-43.5 26.9-63.4 15.3-24.7 34.9-45.9 58.2-63 3.6-2.7 8.8-1.9 11.5 1.7 2.7 3.6 1.9 8.8-1.7 11.5-21.6 15.9-39.7 35.6-53.9 58.4-11.4 18.5-19.8 38.3-24.9 58.8C266.4 269.9 263 272.4 259.4 272.4z" fill="#398378" data-fill-palette-color="accent"></path></g></g></g></g></g><g fill="#398378" data-fill-palette-color="accent"><g fill="#398378" data-fill-palette-color="accent"><path d="M96.6 510c-2.2 0-4.3-0.9-5.9-2.5-3.1-3.3-3-8.5 0.3-11.6l32-30.5c19.9-18.9 46-29.4 73.4-29.4h140c22.9 0 44.7-8.6 61.5-24.2l87.5-81.6c2.4-2.2 3.7-5.2 3.7-8.4s-1.2-6.3-3.5-8.5c-4.5-4.4-11.6-4.6-16.3-0.3l-96.9 88.5c-1.5 1.4-3.5 2.1-5.5 2.1H256.3c-15.8 0-28.6-12.8-28.6-28.6 0-15.8 12.8-28.6 28.6-28.6h45.1c9.1 0 16.5-7.4 16.5-16.5s-7.4-16.5-16.5-16.5H172.1c-23.7 0-46.1 9.1-63 25.7l-88.7 86.7c-3.2 3.2-8.4 3.1-11.6-0.1-3.2-3.2-3.1-8.4 0.1-11.6l88.7-86.7c20-19.6 46.5-30.4 74.5-30.4h129.3c18.1 0 32.9 14.7 32.9 32.8 0 18.1-14.7 32.8-32.9 32.8h-45.1c-6.7 0-12.2 5.5-12.2 12.2s5.5 12.2 12.2 12.2h107.5l94.5-86.3c11.1-10.1 28.2-9.8 38.8 0.8 5.5 5.4 8.4 12.7 8.3 20.4-0.1 7.7-3.3 14.9-8.9 20.2l-87.5 81.6c-19.8 18.5-45.6 28.6-72.7 28.6h-140c-23.2 0-45.3 8.8-62.1 24.8l-32 30.5C100.7 509.3 98.6 510 96.6 510z" fill="#398378" data-fill-palette-color="accent"></path></g></g></g></svg></g></svg></g></svg></g><defs></defs></svg><rect width="395.52" height="150.4766223523338" fill="none" stroke="none" visibility="hidden"></rect></g></svg></g></svg>